<svg xmlns="http://www.w3.org/2000/svg" viewBox="0 0 160 160" fill="none">
  <ellipse cx="80" cy="148" rx="70" ry="10" fill="#A5D6A7" opacity=".55"/>
  <ellipse cx="80" cy="142" rx="58" ry="12" fill="#81C784"/>
  <ellipse cx="80" cy="138" rx="48" ry="9" fill="#66BB6A"/>

  <circle cx="42" cy="138" r="2.2" fill="#FFFDE7" stroke="#F5B942" stroke-width="1"/>
  <circle cx="118" cy="140" r="2" fill="#FFFDE7" stroke="#F5B942" stroke-width="1"/>
  <circle cx="58" cy="142" r="1.7" fill="#FFCDD2"/>
  <circle cx="102" cy="141" r="1.7" fill="#FFCDD2"/>

  <ellipse cx="80" cy="130" rx="34" ry="9" fill="#A1887F" stroke="#5D4037" stroke-width="2.5"/>
  <path d="M80 130V40" stroke="#8D6E63" stroke-width="10" stroke-linecap="round"/>
  <path d="M80 100c-20-12-36-8-42 4M80 88c20-10 36-6 42 6M80 74c-16-10-28-6-32 4M80 74c16-8 28-4 32 6" stroke="#8D6E63" stroke-width="5" stroke-linecap="round"/>
  <circle cx="80" cy="38" r="36" fill="#2F9E6B" stroke="#1A6B48" stroke-width="2.8"/>
  <circle cx="48" cy="54" r="20" fill="#7BC67E" stroke="#1A6B48" stroke-width="2.8"/>
  <circle cx="112" cy="52" r="20" fill="#5BB86A" stroke="#1A6B48" stroke-width="2.8"/>
  <circle cx="62" cy="24" r="16" fill="#66BB6A" stroke="#1A6B48" stroke-width="2.8"/>
  <circle cx="98" cy="22" r="16" fill="#8FD99A" stroke="#1A6B48" stroke-width="2.8"/>
  <circle cx="80" cy="16" r="14" fill="#A5D6A7" stroke="#1A6B48" stroke-width="2.8"/>
  <circle cx="72" cy="46" r="12" fill="#43A047" stroke="#1A6B48" stroke-width="2.8"/>
  <path d="M74 118c0-8 12-8 12 0v10H74z" fill="#6D4C41" stroke="#4E342E" stroke-width="1.8"/>
  <circle cx="83" cy="124" r="1.2" fill="#F5B942"/>
</svg>
