<svg xmlns="http://www.w3.org/2000/svg" viewBox="0 0 160 160" fill="none">
  <ellipse cx="80" cy="148" rx="70" ry="10" fill="#A5D6A7" opacity=".55"/>
  <ellipse cx="80" cy="142" rx="58" ry="12" fill="#81C784"/>
  <ellipse cx="80" cy="138" rx="48" ry="9" fill="#66BB6A"/>

  <circle cx="42" cy="138" r="2.2" fill="#FFFDE7" stroke="#F5B942" stroke-width="1"/>
  <circle cx="118" cy="140" r="2" fill="#FFFDE7" stroke="#F5B942" stroke-width="1"/>
  <circle cx="58" cy="142" r="1.7" fill="#FFCDD2"/>
  <circle cx="102" cy="141" r="1.7" fill="#FFCDD2"/>

  <ellipse cx="80" cy="128" rx="32" ry="9" fill="#A1887F" stroke="#5D4037" stroke-width="2.6"/>
  <path d="M80 128V44" stroke="#8D6E63" stroke-width="7" stroke-linecap="round"/>
  <path d="M80 90c-12-8-22-6-28 2M80 80c12-6 22-4 28 5" stroke="#8D6E63" stroke-width="4.2" stroke-linecap="round"/>
  <circle cx="80" cy="40" r="30" fill="#2F9E6B" stroke="#1A6B48" stroke-width="3.2"/>
  <circle cx="50" cy="56" r="17" fill="#7BC67E" stroke="#1A6B48" stroke-width="2.8"/>
  <circle cx="110" cy="54" r="17" fill="#5BB86A" stroke="#1A6B48" stroke-width="2.8"/>
  <circle cx="80" cy="24" r="13" fill="#8FD99A" stroke="#1A6B48" stroke-width="2.4"/>
  <ellipse cx="72" cy="44" rx="4" ry="3" fill="#A5D6A7" opacity=".7"/>
</svg>
