<svg xmlns="http://www.w3.org/2000/svg" viewBox="0 0 160 160" fill="none">
  <ellipse cx="80" cy="148" rx="70" ry="10" fill="#A5D6A7" opacity=".55"/>
  <ellipse cx="80" cy="142" rx="58" ry="12" fill="#81C784"/>
  <ellipse cx="80" cy="138" rx="48" ry="9" fill="#66BB6A"/>

  <circle cx="42" cy="138" r="2.2" fill="#FFFDE7" stroke="#F5B942" stroke-width="1"/>
  <circle cx="118" cy="140" r="2" fill="#FFFDE7" stroke="#F5B942" stroke-width="1"/>
  <circle cx="58" cy="142" r="1.7" fill="#FFCDD2"/>
  <circle cx="102" cy="141" r="1.7" fill="#FFCDD2"/>

  <ellipse cx="80" cy="128" rx="30" ry="8" fill="#A1887F" stroke="#5D4037" stroke-width="2.5"/>
  <path d="M80 128V48" stroke="#8D6E63" stroke-width="8" stroke-linecap="round"/>
  <path d="M80 92c-16-10-28-6-34 4M80 82c16-8 28-4 34 6" stroke="#8D6E63" stroke-width="4.5" stroke-linecap="round"/>
  <circle cx="80" cy="40" r="32" fill="#2F9E6B" stroke="#1A6B48" stroke-width="2.8"/>
  <circle cx="52" cy="54" r="18" fill="#7BC67E" stroke="#1A6B48" stroke-width="2.8"/>
  <circle cx="108" cy="52" r="18" fill="#5BB86A" stroke="#1A6B48" stroke-width="2.8"/>
  <circle cx="80" cy="26" r="14" fill="#8FD99A" stroke="#1A6B48" stroke-width="2.8"/>
  <circle cx="68" cy="48" r="10" fill="#66BB6A" stroke="#1A6B48" stroke-width="2.8"/>
</svg>
